<mxfile host="Electron" agent="Mozilla/5.0 (Windows NT 10.0; Win64; x64) AppleWebKit/537.36 (KHTML, like Gecko) draw.io/24.7.5 Chrome/126.0.6478.183 Electron/31.3.0 Safari/537.36" version="24.7.5">
  <diagram id="C5RBs43oDa-KdzZeNtuy" name="Page-1">
    <mxGraphModel dx="709" dy="696" grid="1" gridSize="10" guides="1" tooltips="1" connect="1" arrows="1" fold="1" page="1" pageScale="1" pageWidth="827" pageHeight="1169" math="0" shadow="0">
      <root>
        <mxCell id="WIyWlLk6GJQsqaUBKTNV-0" />
        <mxCell id="WIyWlLk6GJQsqaUBKTNV-1" parent="WIyWlLk6GJQsqaUBKTNV-0" />
        <mxCell id="EXWwblW5rrPieetNq7xK-2" value="" style="edgeStyle=orthogonalEdgeStyle;rounded=0;orthogonalLoop=1;jettySize=auto;html=1;" parent="WIyWlLk6GJQsqaUBKTNV-1" source="EXWwblW5rrPieetNq7xK-0" edge="1">
          <mxGeometry relative="1" as="geometry">
            <mxPoint x="414" y="120" as="targetPoint" />
          </mxGeometry>
        </mxCell>
        <mxCell id="EXWwblW5rrPieetNq7xK-0" value="Start&amp;nbsp;" style="ellipse;whiteSpace=wrap;html=1;aspect=fixed;" parent="WIyWlLk6GJQsqaUBKTNV-1" vertex="1">
          <mxGeometry x="374" y="10" width="80" height="80" as="geometry" />
        </mxCell>
        <mxCell id="EXWwblW5rrPieetNq7xK-19" value="End" style="ellipse;whiteSpace=wrap;html=1;" parent="WIyWlLk6GJQsqaUBKTNV-1" vertex="1">
          <mxGeometry x="374" y="890" width="80" height="80" as="geometry" />
        </mxCell>
        <mxCell id="_R9uPjRTjFak0w2XCh5i-14" value="" style="edgeStyle=orthogonalEdgeStyle;rounded=0;orthogonalLoop=1;jettySize=auto;html=1;" edge="1" parent="WIyWlLk6GJQsqaUBKTNV-1" source="_R9uPjRTjFak0w2XCh5i-0" target="_R9uPjRTjFak0w2XCh5i-13">
          <mxGeometry relative="1" as="geometry" />
        </mxCell>
        <mxCell id="_R9uPjRTjFak0w2XCh5i-0" value="Número" style="shape=parallelogram;perimeter=parallelogramPerimeter;whiteSpace=wrap;html=1;fixedSize=1;" vertex="1" parent="WIyWlLk6GJQsqaUBKTNV-1">
          <mxGeometry x="320" y="120" width="188" height="60" as="geometry" />
        </mxCell>
        <mxCell id="_R9uPjRTjFak0w2XCh5i-6" value="" style="edgeStyle=orthogonalEdgeStyle;rounded=0;orthogonalLoop=1;jettySize=auto;html=1;strokeColor=#B3FF66;" edge="1" parent="WIyWlLk6GJQsqaUBKTNV-1" target="_R9uPjRTjFak0w2XCh5i-5">
          <mxGeometry relative="1" as="geometry">
            <mxPoint x="488" y="250" as="sourcePoint" />
            <Array as="points">
              <mxPoint x="488" y="251" />
              <mxPoint x="551" y="251" />
              <mxPoint x="551" y="250" />
            </Array>
          </mxGeometry>
        </mxCell>
        <mxCell id="_R9uPjRTjFak0w2XCh5i-7" value="true" style="edgeLabel;html=1;align=center;verticalAlign=middle;resizable=0;points=[];" vertex="1" connectable="0" parent="_R9uPjRTjFak0w2XCh5i-6">
          <mxGeometry x="-0.1935" y="2" relative="1" as="geometry">
            <mxPoint as="offset" />
          </mxGeometry>
        </mxCell>
        <mxCell id="_R9uPjRTjFak0w2XCh5i-5" value="Return&amp;nbsp; false" style="whiteSpace=wrap;html=1;" vertex="1" parent="WIyWlLk6GJQsqaUBKTNV-1">
          <mxGeometry x="612" y="220" width="120" height="60" as="geometry" />
        </mxCell>
        <mxCell id="_R9uPjRTjFak0w2XCh5i-29" value="" style="edgeStyle=orthogonalEdgeStyle;rounded=0;orthogonalLoop=1;jettySize=auto;html=1;strokeColor=#FF0000;" edge="1" parent="WIyWlLk6GJQsqaUBKTNV-1" source="_R9uPjRTjFak0w2XCh5i-13">
          <mxGeometry relative="1" as="geometry">
            <mxPoint x="414" y="350" as="targetPoint" />
          </mxGeometry>
        </mxCell>
        <mxCell id="_R9uPjRTjFak0w2XCh5i-13" value="Número &amp;lt; 2" style="rhombus;whiteSpace=wrap;html=1;" vertex="1" parent="WIyWlLk6GJQsqaUBKTNV-1">
          <mxGeometry x="340" y="200" width="148" height="100" as="geometry" />
        </mxCell>
        <mxCell id="_R9uPjRTjFak0w2XCh5i-55" value="" style="edgeStyle=orthogonalEdgeStyle;rounded=0;orthogonalLoop=1;jettySize=auto;html=1;" edge="1" parent="WIyWlLk6GJQsqaUBKTNV-1" source="_R9uPjRTjFak0w2XCh5i-40" target="_R9uPjRTjFak0w2XCh5i-54">
          <mxGeometry relative="1" as="geometry" />
        </mxCell>
        <mxCell id="_R9uPjRTjFak0w2XCh5i-40" value="let i = 2" style="rounded=0;whiteSpace=wrap;html=1;" vertex="1" parent="WIyWlLk6GJQsqaUBKTNV-1">
          <mxGeometry x="354" y="350" width="120" height="60" as="geometry" />
        </mxCell>
        <mxCell id="_R9uPjRTjFak0w2XCh5i-57" value="False" style="edgeStyle=orthogonalEdgeStyle;rounded=0;orthogonalLoop=1;jettySize=auto;html=1;strokeColor=#FF0000;" edge="1" parent="WIyWlLk6GJQsqaUBKTNV-1" source="_R9uPjRTjFak0w2XCh5i-54" target="_R9uPjRTjFak0w2XCh5i-56">
          <mxGeometry relative="1" as="geometry" />
        </mxCell>
        <mxCell id="_R9uPjRTjFak0w2XCh5i-59" value="true" style="edgeStyle=orthogonalEdgeStyle;rounded=0;orthogonalLoop=1;jettySize=auto;html=1;strokeColor=#13F031;" edge="1" parent="WIyWlLk6GJQsqaUBKTNV-1" source="_R9uPjRTjFak0w2XCh5i-54" target="_R9uPjRTjFak0w2XCh5i-58">
          <mxGeometry relative="1" as="geometry" />
        </mxCell>
        <mxCell id="_R9uPjRTjFak0w2XCh5i-54" value="&lt;font style=&quot;font-size: 14px;&quot;&gt;i&amp;nbsp;&amp;lt;= Math.sqrt(número)&amp;nbsp;&lt;/font&gt;" style="rhombus;whiteSpace=wrap;html=1;rounded=0;" vertex="1" parent="WIyWlLk6GJQsqaUBKTNV-1">
          <mxGeometry x="330" y="450" width="168" height="140" as="geometry" />
        </mxCell>
        <mxCell id="_R9uPjRTjFak0w2XCh5i-68" style="edgeStyle=orthogonalEdgeStyle;rounded=0;orthogonalLoop=1;jettySize=auto;html=1;exitX=1;exitY=0.5;exitDx=0;exitDy=0;entryX=1;entryY=0.5;entryDx=0;entryDy=0;" edge="1" parent="WIyWlLk6GJQsqaUBKTNV-1" source="_R9uPjRTjFak0w2XCh5i-56" target="EXWwblW5rrPieetNq7xK-19">
          <mxGeometry relative="1" as="geometry" />
        </mxCell>
        <mxCell id="_R9uPjRTjFak0w2XCh5i-56" value="Return true" style="whiteSpace=wrap;html=1;rounded=0;" vertex="1" parent="WIyWlLk6GJQsqaUBKTNV-1">
          <mxGeometry x="612" y="490" width="120" height="60" as="geometry" />
        </mxCell>
        <mxCell id="_R9uPjRTjFak0w2XCh5i-62" value="" style="edgeStyle=orthogonalEdgeStyle;rounded=0;orthogonalLoop=1;jettySize=auto;html=1;strokeColor=#50F016;" edge="1" parent="WIyWlLk6GJQsqaUBKTNV-1" source="_R9uPjRTjFak0w2XCh5i-58" target="_R9uPjRTjFak0w2XCh5i-61">
          <mxGeometry relative="1" as="geometry" />
        </mxCell>
        <mxCell id="_R9uPjRTjFak0w2XCh5i-63" value="true" style="edgeLabel;html=1;align=center;verticalAlign=middle;resizable=0;points=[];" vertex="1" connectable="0" parent="_R9uPjRTjFak0w2XCh5i-62">
          <mxGeometry x="-0.252" y="4" relative="1" as="geometry">
            <mxPoint as="offset" />
          </mxGeometry>
        </mxCell>
        <mxCell id="_R9uPjRTjFak0w2XCh5i-65" value="" style="edgeStyle=orthogonalEdgeStyle;rounded=0;orthogonalLoop=1;jettySize=auto;html=1;strokeColor=#FF3333;" edge="1" parent="WIyWlLk6GJQsqaUBKTNV-1" source="_R9uPjRTjFak0w2XCh5i-58" target="_R9uPjRTjFak0w2XCh5i-64">
          <mxGeometry relative="1" as="geometry" />
        </mxCell>
        <mxCell id="_R9uPjRTjFak0w2XCh5i-58" value="Número % i === 0" style="rhombus;whiteSpace=wrap;html=1;rounded=0;" vertex="1" parent="WIyWlLk6GJQsqaUBKTNV-1">
          <mxGeometry x="330" y="650" width="168" height="120" as="geometry" />
        </mxCell>
        <mxCell id="_R9uPjRTjFak0w2XCh5i-69" style="edgeStyle=orthogonalEdgeStyle;rounded=0;orthogonalLoop=1;jettySize=auto;html=1;" edge="1" parent="WIyWlLk6GJQsqaUBKTNV-1" source="_R9uPjRTjFak0w2XCh5i-61">
          <mxGeometry relative="1" as="geometry">
            <mxPoint x="750" y="710" as="targetPoint" />
          </mxGeometry>
        </mxCell>
        <mxCell id="_R9uPjRTjFak0w2XCh5i-61" value="Return false" style="whiteSpace=wrap;html=1;rounded=0;" vertex="1" parent="WIyWlLk6GJQsqaUBKTNV-1">
          <mxGeometry x="602" y="680" width="120" height="60" as="geometry" />
        </mxCell>
        <mxCell id="_R9uPjRTjFak0w2XCh5i-66" style="edgeStyle=orthogonalEdgeStyle;rounded=0;orthogonalLoop=1;jettySize=auto;html=1;entryX=0;entryY=0.5;entryDx=0;entryDy=0;" edge="1" parent="WIyWlLk6GJQsqaUBKTNV-1" source="_R9uPjRTjFak0w2XCh5i-64" target="_R9uPjRTjFak0w2XCh5i-54">
          <mxGeometry relative="1" as="geometry">
            <Array as="points">
              <mxPoint x="280" y="850" />
              <mxPoint x="280" y="520" />
            </Array>
          </mxGeometry>
        </mxCell>
        <mxCell id="_R9uPjRTjFak0w2XCh5i-67" value="" style="edgeStyle=orthogonalEdgeStyle;rounded=0;orthogonalLoop=1;jettySize=auto;html=1;" edge="1" parent="WIyWlLk6GJQsqaUBKTNV-1" source="_R9uPjRTjFak0w2XCh5i-64" target="EXWwblW5rrPieetNq7xK-19">
          <mxGeometry relative="1" as="geometry" />
        </mxCell>
        <mxCell id="_R9uPjRTjFak0w2XCh5i-64" value="i++" style="whiteSpace=wrap;html=1;rounded=0;" vertex="1" parent="WIyWlLk6GJQsqaUBKTNV-1">
          <mxGeometry x="354" y="810" width="120" height="60" as="geometry" />
        </mxCell>
      </root>
    </mxGraphModel>
  </diagram>
</mxfile>
